<?xml version="1.0" encoding="UTF-8"?>
<!DOCTYPE svg PUBLIC "-//W3C//DTD SVG 1.1//EN" "http://www.w3.org/Graphics/SVG/1.1/DTD/svg11.dtd">
<!-- Creator: CorelDRAW X7 -->
<svg xmlns="http://www.w3.org/2000/svg" xml:space="preserve" width="25.3968mm" height="35.626mm" version="1.1" shape-rendering="geometricPrecision" text-rendering="geometricPrecision" image-rendering="optimizeQuality" fill-rule="evenodd" clip-rule="evenodd"
viewBox="0 0 2540 3563"
 xmlns:xlink="http://www.w3.org/1999/xlink">
 <g id="Layer_x0020_1">
  <metadata id="CorelCorpID_0Corel-Layer"/>
  <rect fill="#7FB439" width="2540" height="3563"/>
  <path fill="#FEFEFE" d="M777 1215l86 0c0,161 0,322 1,484 0,41 32,69 74,69 227,0 455,0 682,0 44,0 75,-28 74,-70l2 -483 206 199 0 927c0,64 -52,116 -116,116l-1009 0c-64,0 -117,-52 -117,-116l0 -1009c0,-64 53,-117 117,-117zm846 2l2 416c0,38 -31,69 -69,69l-548 0c-38,0 -69,-31 -69,-69l3 -416 681 0zm-273 73l144 0 0 343 -144 0 0 -343z"/>
 </g>
</svg>
