<?xml version="1.0" encoding="UTF-8"?>
<!DOCTYPE svg PUBLIC "-//W3C//DTD SVG 1.1//EN" "http://www.w3.org/Graphics/SVG/1.1/DTD/svg11.dtd">
<!-- Creator: CorelDRAW X7 -->
<svg xmlns="http://www.w3.org/2000/svg" xml:space="preserve" width="25.3968mm" height="35.626mm" version="1.1" shape-rendering="geometricPrecision" text-rendering="geometricPrecision" image-rendering="optimizeQuality" fill-rule="evenodd" clip-rule="evenodd"
viewBox="0 0 2540 3563"
 xmlns:xlink="http://www.w3.org/1999/xlink">
 <g id="Layer_x0020_1">
  <metadata id="CorelCorpID_0Corel-Layer"/>
  <rect fill="#7FB439" width="2540" height="3563"/>
  <path fill="#FEFEFE" d="M1377 2566l76 -182 94 -37 191 72 119 -115 -83 -191 42 -93 199 -80 1 -151 -212 -95 -28 -84 82 -199 -110 -107 -213 80 -87 -42 -90 -195 -153 0 -86 197 -88 37 -210 -82 -117 115 89 197 -35 89 -203 93 -4 154 206 84 34 87 -76 196 122 113 195 -85 89 47 81 178 175 -1zm-95 -943c134,0 241,108 241,241 0,133 -107,241 -241,241 -133,0 -241,-108 -241,-241 0,-133 108,-241 241,-241z"/>
 </g>
</svg>
