<?xml version="1.0" encoding="UTF-8"?>
<!DOCTYPE svg PUBLIC "-//W3C//DTD SVG 1.1//EN" "http://www.w3.org/Graphics/SVG/1.1/DTD/svg11.dtd">
<!-- Creator: CorelDRAW X7 -->
<svg xmlns="http://www.w3.org/2000/svg" xml:space="preserve" width="160mm" height="158mm" version="1.1" shape-rendering="geometricPrecision" text-rendering="geometricPrecision" image-rendering="optimizeQuality" fill-rule="evenodd" clip-rule="evenodd"
viewBox="0 0 16000 15800"
 xmlns:xlink="http://www.w3.org/1999/xlink">
 <g id="Layer_x0020_1">
  <metadata id="CorelCorpID_0Corel-Layer"/>
  <path fill="#7FB439" d="M767 20l9589 0c407,0 741,333 741,740l0 4392 -1101 -10 0 -3990 -7218 0 2931 1642c141,78 293,220 279,552l8 8643 4000 0 13 -3100 1088 -9 0 3437c0,408 -334,741 -741,741l-4376 0c0,752 0,1503 0,2254 9,359 -432,594 -797,376l-4416 -2630c-350,-208 -740,-333 -740,-741l0 -11557c0,-407 333,-740 740,-740zm8386 7784l3132 0 0 1545c111,274 359,300 603,108 965,-697 1930,-1395 2895,-2092 365,-210 270,-547 0,-694 -782,-516 -2198,-1583 -2921,-2122 -204,-171 -539,-90 -534,133 3,183 -23,1259 -32,1587 -1044,0 -2089,0 -3133,0 -402,13 -644,369 -651,720 -7,357 231,797 641,815z"/>
 </g>
</svg>
